<svg xmlns="http://www.w3.org/2000/svg" style="isolation:isolate" viewBox="0 0 1440 217" width="1920" height="217pt"><defs><clipPath id="a"><path d="M0 0h1440v217H0z"/></clipPath></defs><g clip-path="url(#a)"><path d="M-23.3 245.682c421.477 0 1488.977 176.078 1488.977 39.234s478.754-248.043 57.278-248.043c-198.746 0-468.566 3.555-719.957-11.23C521.271 9.076 256.9-13.773 59.977 11.438-312.665 59.145-444.776 245.683-23.3 245.683v-.001z" fill="#D1D1D1" opacity=".5"/><clipPath id="b"><path d="M-23.3 245.682c421.477 0 1488.977 176.078 1488.977 39.234s478.754-248.043 57.278-248.043c-198.746 0-468.566 3.555-719.957-11.23C521.271 9.076 256.9-13.773 59.977 11.438-312.665 59.145-444.776 245.683-23.3 245.683v-.001z" fill-rule="evenodd" fill="#FFF"/></clipPath><g clip-path="url(#b)"><path d="M160.7 346.682c421.477 0 972.745 179.787 972.745 42.943s579.941-255.246 158.465-255.246-706.969-146.996-706.969-10.152c0 136.843-845.717 222.455-424.24 222.455h-.001z" fill-rule="evenodd" fill="#03CCFE" opacity=".5"/></g></g></svg>