<?xml version="1.0" encoding="UTF-8" standalone="no"?>
<!-- Generator: Gravit.io -->
<svg xmlns="http://www.w3.org/2000/svg" xmlns:xlink="http://www.w3.org/1999/xlink" style="isolation:isolate" viewBox="0 0 1440 217" width="1440pt" height="217pt"><defs><clipPath id="_clipPath_3QWdCjG7YsUE1rlztPAfqN8gfSlY4TMz"><rect width="1440" height="217"/></clipPath></defs><g clip-path="url(#_clipPath_3QWdCjG7YsUE1rlztPAfqN8gfSlY4TMz)"><g opacity="0.5"><path d=" M -23.3 245.682 C 398.177 245.682 1465.677 421.76 1465.677 284.916 C 1465.677 148.072 1944.431 36.873 1522.955 36.873 C 1324.209 36.873 1054.389 40.428 802.998 25.643 C 521.271 9.076 256.9 -13.773 59.977 11.438 C -312.665 59.145 -444.776 245.683 -23.3 245.683 L -23.3 245.682 Z " fill="rgb(209,209,209)"/></g><clipPath id="_clipPath_V8rADv2jMvPdKkiGBLkzXUMavllp2223"><path d=" M -23.3 245.682 C 398.177 245.682 1465.677 421.76 1465.677 284.916 C 1465.677 148.072 1944.431 36.873 1522.955 36.873 C 1324.209 36.873 1054.389 40.428 802.998 25.643 C 521.271 9.076 256.9 -13.773 59.977 11.438 C -312.665 59.145 -444.776 245.683 -23.3 245.683 L -23.3 245.682 Z " fill-rule="evenodd" fill="rgb(255,255,255)"/></clipPath><g clip-path="url(#_clipPath_V8rADv2jMvPdKkiGBLkzXUMavllp2223)"><g opacity="0.5"><path d=" M 160.7 346.682 C 582.177 346.682 1133.445 526.469 1133.445 389.625 C 1133.445 252.781 1713.386 134.379 1291.91 134.379 C 870.434 134.379 584.941 -12.617 584.941 124.227 C 584.941 261.07 -260.776 346.682 160.701 346.682 L 160.7 346.682 Z " fill-rule="evenodd" fill="rgb(3,204,254)"/></g></g></g></svg>